<svg width="418" height="462" viewBox="0 0 418 462" fill="none" xmlns="http://www.w3.org/2000/svg">
<path fill-rule="evenodd" clip-rule="evenodd" d="M114.245 0.707449C108.415 3.15845 108.007 5.32645 108.701 30.1574C109.306 51.8084 109.387 52.4744 111.75 55.2834C115.027 59.1774 120.922 59.3374 124.626 55.6334L127.16 53.0994L126.83 29.8374C126.549 10.0154 126.249 6.19245 124.803 3.98845C122.429 0.36845 118.187 -0.949551 114.245 0.707449ZM41.636 30.8045C37.58 34.8615 37.949 40.6294 42.662 46.8414C55.763 64.1104 66.267 76.3135 68.894 77.3155C70.438 77.9045 72.514 77.8234 74.741 77.0894C78.803 75.7484 81.425 70.7794 80.376 66.4104C79.712 63.6464 63.767 41.7284 56.012 32.9184C52.41 28.8274 51.306 28.1684 48.051 28.1684C45.302 28.1684 43.555 28.8865 41.636 30.8045ZM180.82 30.2094C178.712 31.4394 157.019 61.6585 155.66 65.2595C154.471 68.4075 156.885 74.5014 159.975 76.1544C162.578 77.5484 167.298 77.4264 169.164 75.9184C170.785 74.6074 178.776 64.1294 188.343 50.7694C192.918 44.3804 194 42.1184 194 38.9424C194 31.9274 186.45 26.9244 180.82 30.2094ZM108 68.2595C101.104 69.5965 89.703 75.6734 83.565 81.2834C68.904 94.6824 61.034 117.112 63.998 137.045C66.43 153.395 71.939 164.806 82.405 175.168C89.861 182.551 95.692 186.214 104.875 189.283L111.25 191.414L106.652 194.276C103.064 196.509 101.541 196.944 99.726 196.254C96.307 194.954 92.096 196.091 90.327 198.792C89.473 200.094 87.588 204.627 86.138 208.865L83.5 216.57L75 217.935C63.13 219.842 55.247 223.736 47.427 231.556C40.378 238.604 35.827 246.867 33.912 256.092C32.207 264.303 33.237 280.434 35.884 286.998C45.185 310.059 65.814 320.988 90 315.668C100.099 313.447 101.966 313.713 109.28 318.419L115.888 322.671L109.849 326.169C94.334 335.159 89.441 347.437 96.501 359.668C99.583 365.009 102.548 367.638 108.41 370.231C120.06 375.385 130.534 368.34 134.648 352.583C135.45 349.512 136.654 343.204 137.324 338.566L138.541 330.134L147.521 329.738C157.534 329.297 164.44 327.486 173.83 322.837C179.178 320.19 180.293 319.934 181.013 321.186C183.073 324.769 187.512 330.138 193.4 336.168C199.169 342.076 199.789 343.123 200.205 347.668C200.786 354.005 203.14 358.962 207.816 363.696C212.381 368.318 216.585 370.168 222.518 370.168C228.13 370.168 232.092 368.225 235.446 363.827C237.908 360.599 238.159 360.511 242.748 361.267C259.187 363.972 279.126 359.443 296.76 348.999C302.22 345.764 316.536 332.569 320.812 326.83C322.601 324.428 323.392 324.095 325.963 324.66C327.633 325.027 328.984 325.629 328.964 325.997C328.944 326.366 326.619 328.243 323.798 330.168C315.549 335.796 312.663 340.104 312.192 347.491C311.532 357.865 316.362 366.241 325.617 370.769C329.918 372.873 332.034 373.323 335.889 372.953C347.499 371.837 352.517 362.331 357.432 332.146C357.989 328.721 358.175 328.592 364.248 327.438C367.681 326.786 374.18 324.424 378.688 322.19C397.158 313.038 411.971 292.388 416.007 270.168C418.679 255.457 416.631 235.776 411.085 222.859C403.055 204.156 386.283 188.678 367.603 182.729C357.741 179.589 357.447 179.369 348.968 168.784C338.938 156.263 329.684 151.329 312.287 149.226C305.194 148.369 303.272 147.686 298.205 144.228C290.584 139.026 280.225 134.663 269.274 132.043C262.009 130.305 258.522 130.035 249 130.476C230.924 131.312 216.453 136.572 202 147.559C196.296 151.896 193.901 153.15 192 152.797C190.625 152.542 185.762 151.764 181.193 151.069L172.886 149.804L173.693 145.736C175.195 138.166 174.569 118.175 172.625 111.668C163.387 80.7314 136.574 62.7205 108 68.2595ZM209 100.198C204.875 101.216 197.91 102.819 193.522 103.76C183.81 105.842 180 108.916 180 114.668C180 117.407 180.763 119.085 183.046 121.368C185.888 124.21 186.43 124.369 191.153 123.742C198.631 122.75 222.16 117.34 224.684 116.032C229.77 113.397 230.152 104.006 225.328 100.211C222.2 97.7514 218.925 97.7484 209 100.198ZM6.03602 103.978C3.76602 106.248 3.00002 107.933 3.00002 110.657C3.00002 119.443 4.98703 120.35 34.828 125.175C50.261 127.67 50.164 127.672 53.354 124.716C55.445 122.778 56 121.338 56 117.851C56 109.853 53.47 108.252 36 105.194C32.425 104.568 27.925 103.664 26 103.184C24.075 102.704 19.479 102.004 15.786 101.627C9.24502 100.96 8.99302 101.021 6.03602 103.978ZM39.5 172.274C20.266 185.232 19.5 185.979 19.5 191.777C19.5 195.538 19.994 196.766 22.306 198.755C27.213 202.975 29.848 202.153 45.829 191.418C64.506 178.871 67 176.551 67 171.723C67 168.957 66.257 167.271 64.077 165.091C59.052 160.066 56.526 160.804 39.5 172.274ZM173.951 405.559C155.452 413.25 143.401 421.572 140.415 428.717C138.675 432.881 138.655 440.458 140.371 445.258C143.748 454.704 153.907 461.889 162.515 460.919C174.079 459.616 180.062 448.631 183.515 422.367C185.375 408.213 185.367 406.678 183.429 404.739C181.407 402.718 180.624 402.785 173.951 405.559ZM282.226 408.124C261.568 417.102 253.993 424.112 253.207 434.979C252.647 442.724 255.646 449.806 261.767 455.194C272.961 465.048 285.38 462.298 291.535 448.604C296.398 437.783 300.791 408.031 298.019 404.691C296.137 402.423 294.549 402.768 282.226 408.124Z" fill="#A5C8FF"/>
<path d="M174 127.5C174 161.466 149.152 189 118.5 189C87.8482 189 63 161.466 63 127.5C63 93.5345 87.8482 66 118.5 66C149.152 66 174 93.5345 174 127.5Z" fill="#EFBF3D"/>
<path d="M29.3597 198.784C25.239 201.564 19.6452 200.476 16.8657 196.355C14.0862 192.235 15.1735 186.641 19.2943 183.861L54.1138 160.375C58.2346 157.596 63.8284 158.683 66.6079 162.804C69.3874 166.925 68.3001 172.518 64.1793 175.298L29.3597 198.784Z" fill="#EFBF3D"/>
<path d="M7.97187 118.257C3.07682 117.394 -0.191691 112.726 0.671438 107.831C1.53457 102.936 6.20249 99.6676 11.0975 100.531L52.4595 107.824C57.3545 108.687 60.623 113.355 59.7599 118.25C58.8968 123.145 54.2288 126.414 49.3338 125.551L7.97187 118.257Z" fill="#EFBF3D"/>
<path d="M37.6639 40.3221C34.5358 36.4592 35.1315 30.792 38.9943 27.6639C42.8572 24.5358 48.5245 25.1315 51.6525 28.9943L78.084 61.6344C81.2121 65.4973 80.6164 71.1646 76.7536 74.2926C72.8907 77.4207 67.2234 76.8251 64.0954 72.9622L37.6639 40.3221Z" fill="#EFBF3D"/>
<path d="M181.977 28.2812C184.899 24.2599 190.527 23.3684 194.548 26.2901C198.57 29.2117 199.461 34.84 196.539 38.8613L171.852 72.84C168.931 76.8613 163.302 77.7527 159.281 74.8311C155.26 71.9095 154.368 66.2811 157.29 62.2599L181.977 28.2812Z" fill="#EFBF3D"/>
<path d="M227.504 94.7812C232.231 93.2452 237.309 95.8322 238.845 100.56C240.381 105.287 237.793 110.364 233.066 111.9L193.122 124.879C188.395 126.415 183.317 123.828 181.781 119.101C180.245 114.373 182.832 109.296 187.56 107.76L227.504 94.7812Z" fill="#EFBF3D"/>
<path d="M109 9C109 4.02944 113.029 0 118 0C122.971 0 127 4.02944 127 9V51C127 55.9706 122.971 60 118 60C113.029 60 109 55.9706 109 51V9Z" fill="#EFBF3D"/>
<path d="M171.878 456.243C166.363 462.817 150.005 461.054 143.431 455.538C136.858 450.022 131.891 433.891 137.406 427.318C142.922 420.744 177.899 401.111 184.473 406.626C191.046 412.142 177.394 449.669 171.878 456.243Z" fill="#A5C8FF"/>
<path d="M287.878 456.243C282.363 462.817 266.005 461.054 259.431 455.538C252.858 450.022 247.891 433.891 253.406 427.318C258.922 420.744 293.899 401.111 300.473 406.626C307.046 412.142 293.394 449.669 287.878 456.243Z" fill="#A5C8FF"/>
<path d="M129.878 368.243C124.363 374.817 108.005 373.054 101.431 367.538C94.8575 362.022 89.8905 345.891 95.4065 339.318C100.922 332.744 135.899 313.111 142.473 318.626C149.046 324.142 135.394 361.669 129.878 368.243Z" fill="#A5C8FF"/>
<path d="M346.878 368.243C341.363 374.817 325.005 373.054 318.431 367.538C311.858 362.022 306.891 345.891 312.406 339.318C317.922 332.744 352.899 313.111 359.473 318.626C366.046 324.142 352.394 361.669 346.878 368.243Z" fill="#A5C8FF"/>
<path d="M233.878 378.243C228.363 384.817 212.005 383.054 205.431 377.538C198.858 372.022 193.891 355.891 199.406 349.318C204.922 342.744 239.899 323.111 246.473 328.626C253.046 334.142 239.394 371.669 233.878 378.243Z" fill="#A5C8FF"/>
</svg>
